<svg width="40" height="40" viewBox="0 0 40 40" fill="none" xmlns="http://www.w3.org/2000/svg">
<path d="M6.81675 13.4667C6.73341 13.9667 6.66675 14.4667 6.66675 15.0001C6.66675 14.4834 6.73341 13.9667 6.81675 13.4667ZM6.66675 25.0001C6.66675 25.5334 6.73341 26.0334 6.81675 26.5334C6.73341 26.0334 6.66675 25.5167 6.66675 25.0001ZM13.4834 33.1834C13.9667 33.2667 14.4834 33.3334 15.0001 33.3334C14.4834 33.3334 13.9834 33.2667 13.4834 33.1834ZM13.4834 6.81675C13.9834 6.73341 14.4834 6.66675 15.0001 6.66675C14.4834 6.66675 13.9667 6.73341 13.4834 6.81675ZM26.5334 6.81675C26.0334 6.73341 25.5334 6.66675 25.0001 6.66675C25.5167 6.66675 26.0334 6.73341 26.5334 6.81675ZM33.1834 13.4667C33.2667 13.9667 33.3334 14.4834 33.3334 15.0001C33.3334 14.4667 33.2667 13.9667 33.1834 13.4667Z" fill="#E62073"/>
<path d="M36.6666 13.8333C36.6666 14.5333 36.1166 15.0833 35.4166 15.0833H33.3333V18.5284C33.3333 18.9145 32.9142 19.155 32.5809 18.9601L32.2499 18.7666C31.5333 18.3499 30.6999 18.2166 29.8999 18.4333C29.8045 18.4562 29.7108 18.4834 29.6191 18.5147C29.2361 18.6451 28.7666 18.3941 28.7666 17.9896V16.2333C28.7666 13.4833 26.5166 11.2333 23.7666 11.2333H16.2333C13.4833 11.2333 11.2333 13.4833 11.2333 16.2333V23.7666C11.2333 26.5166 13.4833 28.7666 16.2333 28.7666H16.9833C17.1766 28.7666 17.3333 28.9233 17.3333 29.1166C17.3333 30.7225 18.497 32.0726 20.0291 32.3829C20.3172 32.4412 20.5122 32.7859 20.4166 33.0638C20.3619 33.2228 20.2169 33.3333 20.0488 33.3333H15.0999V35.4166C15.0999 36.0999 14.5333 36.6666 13.8499 36.6666C13.1499 36.6666 12.5999 36.0999 12.5999 35.4166V32.9666C9.93325 32.1499 7.84992 30.0666 7.04992 27.4166H4.58325C3.89992 27.4166 3.33325 26.8499 3.33325 26.1666C3.33325 25.4666 3.89992 24.9166 4.58325 24.9166H6.66659V21.2499H4.58325C3.89992 21.2499 3.33325 20.6833 3.33325 19.9999C3.33325 19.2999 3.89992 18.7499 4.58325 18.7499H6.66659V15.0833H4.58325C3.89992 15.0833 3.33325 14.5333 3.33325 13.8333C3.33325 13.1499 3.89992 12.5833 4.58325 12.5833H7.04992C7.84992 9.93325 9.93325 7.84992 12.5999 7.03325V4.58325C12.5999 3.89992 13.1499 3.33325 13.8499 3.33325C14.5333 3.33325 15.0999 3.89992 15.0999 4.58325V6.66659H18.7499V4.58325C18.7499 3.89992 19.3166 3.33325 19.9999 3.33325C20.6833 3.33325 21.2499 3.89992 21.2499 4.58325V6.66659H24.9166V4.58325C24.9166 3.89992 25.4833 3.33325 26.1666 3.33325C26.8499 3.33325 27.4166 3.89992 27.4166 4.58325V7.04992C30.0666 7.84992 32.1499 9.93325 32.9499 12.5833H35.4166C36.1166 12.5833 36.6666 13.1499 36.6666 13.8333Z" fill="#E62073"/>
<path d="M34.9833 25.8834C33.85 25.8834 33.2 25.3167 33.2 24.4834C33.2 24.15 33.3 23.7667 33.5333 23.3667C34 22.5667 33.7167 21.5334 32.9167 21.0834L31.4 20.2C30.7 19.7834 29.8 20.0334 29.3833 20.7334L29.2833 20.9C28.4833 22.2834 27.1833 22.2834 26.3833 20.9L26.2833 20.7334C25.8833 20.0334 24.9667 19.7834 24.2833 20.2L22.75 21.0834C22.2167 21.3834 21.9 21.95 21.9 22.5334C21.9 22.8167 21.9833 23.1 22.1333 23.3667C22.3667 23.7667 22.4833 24.15 22.4833 24.4834C22.4833 25.3167 21.8167 25.8834 20.6833 25.8834C19.7667 25.8834 19 26.6334 19 27.55V29.1167C19 30.0334 19.7667 30.7834 20.6833 30.7834C21.8167 30.7834 22.4833 31.35 22.4833 32.1834C22.4833 32.5167 22.3667 32.9 22.1333 33.3C21.6667 34.1 21.95 35.1334 22.75 35.5834L24.2833 36.4667C24.9667 36.8834 25.8833 36.6334 26.2833 35.9334L26.3833 35.7667C27.1833 34.3834 28.4833 34.3834 29.2833 35.7667L29.3833 35.9334C29.8 36.6334 30.7 36.8834 31.4 36.4667L32.9167 35.5834C33.45 35.2834 33.7667 34.7167 33.7667 34.1334C33.7667 33.85 33.6833 33.5667 33.5333 33.3C33.3 32.9 33.2 32.5167 33.2 32.1834C33.2 31.35 33.85 30.7834 34.9833 30.7834C35.9167 30.7834 36.6667 30.0334 36.6667 29.1167V27.55C36.6667 26.6334 35.9167 25.8834 34.9833 25.8834ZM27.8333 31.2C26.25 31.2 24.9667 29.9167 24.9667 28.3334C24.9667 26.75 26.25 25.4667 27.8333 25.4667C29.4167 25.4667 30.7 26.75 30.7 28.3334C30.7 29.9167 29.4167 31.2 27.8333 31.2Z" fill="#E62073"/>
<path d="M27.0834 16.7001V17.9649C27.0834 18.4048 26.5116 18.6708 26.0976 18.5223C26.0007 18.4875 25.9015 18.4579 25.8001 18.4334C24.9667 18.2167 24.1334 18.3334 23.4501 18.7501L21.9334 19.6334C20.8834 20.2167 20.2334 21.3334 20.2334 22.5334C20.2334 22.8239 20.2685 23.1188 20.3453 23.4091C20.4444 23.7838 20.1892 24.2304 19.8149 24.331C18.6765 24.637 17.7747 25.529 17.4565 26.66C17.3891 26.8993 17.1823 27.0834 16.9337 27.0834H16.7001C14.6001 27.0834 12.9167 25.4001 12.9167 23.3001V16.7001C12.9167 14.6001 14.6001 12.9167 16.7001 12.9167H23.3001C25.4001 12.9167 27.0834 14.6001 27.0834 16.7001Z" fill="#E62073"/>
</svg>
