<svg width="40" height="40" viewBox="0 0 40 40" fill="none" xmlns="http://www.w3.org/2000/svg">
<path d="M26.9833 3.33301H13.0166C6.94992 3.33301 3.33325 6.94967 3.33325 13.0163V26.9663C3.33325 33.0497 6.94992 36.6663 13.0166 36.6663H26.9666C33.0333 36.6663 36.6499 33.0497 36.6499 26.983V13.0163C36.6666 6.94967 33.0499 3.33301 26.9833 3.33301ZM16.5166 26.983C16.5166 28.0497 15.6499 28.9163 14.5666 28.9163C13.4999 28.9163 12.6333 28.0497 12.6333 26.983V21.5497C12.6333 20.483 13.4999 19.6163 14.5666 19.6163C15.6499 19.6163 16.5166 20.483 16.5166 21.5497V26.983ZM27.3666 26.983C27.3666 28.0497 26.4999 28.9163 25.4333 28.9163C24.3499 28.9163 23.4833 28.0497 23.4833 26.983V13.0163C23.4833 11.9497 24.3499 11.083 25.4333 11.083C26.4999 11.083 27.3666 11.9497 27.3666 13.0163V26.983Z" fill="white"/>
</svg>
